<?xml version="1.0" encoding="utf-8"?>
<svg width="120px" height="60px" viewBox="0 0 120 60" version="1.1" xmlns:xlink="http://www.w3.org/1999/xlink" xmlns="http://www.w3.org/2000/svg">
  <desc>Created with Lunacy</desc>
  <g id="SPRINT" fill="#818896">
    <path d="M14.9883 19.6914Q14.9063 19.6797 14.8828 19.7734Q15.375 19.9844 15.4453 20.4648Q15.5156 20.9453 15.4102 21.5195Q15.3047 22.0938 15.1523 22.6797Q15 23.2656 15.0469 23.6875Q14.9063 23.6875 14.8125 23.5938Q14.8125 23.9453 15 24.1094Q14.6719 24.3438 14.7305 24.6367Q14.7891 24.9297 14.9883 25.2227Q15.1875 25.5156 15.3867 25.8203Q15.5859 26.125 15.5156 26.4063Q15.7734 26.4297 15.9492 26.5352Q16.125 26.6406 16.3125 26.7578Q16.7109 26.6406 17.2148 26.5234Q17.7188 26.4063 18.1875 26.4297Q18.6094 25.8438 18.8555 25.1641Q19.1016 24.4844 19.2305 23.7695Q19.3594 23.0547 19.3828 22.3398Q19.4063 21.625 19.3828 20.9922Q20.7422 20.6875 22.1836 20.4297Q23.625 20.1719 24.9727 19.7617Q26.3203 19.3516 27.4922 18.7305Q28.6641 18.1094 29.4844 17.0781Q29.8594 16.1406 29.8828 15.2031Q29.9063 14.2656 29.6836 13.3867Q29.4609 12.5078 29.0625 11.6992Q28.6641 10.8906 28.2188 10.1875Q27.5625 9.60156 26.6367 9.27344Q25.7109 8.94531 24.5391 8.80469Q24.4453 8.80469 24.4219 8.91016Q24.4117 8.95588 24.3839 8.97297Q24.3476 8.99531 24.2813 8.96875Q23.7656 8.82813 23.1563 8.83984Q22.5469 8.85156 21.9727 8.98047Q21.3984 9.10938 20.8945 9.34375Q20.3906 9.57813 20.0625 9.85938Q19.5938 10.0703 19.1953 10.457Q18.7969 10.8438 18.4453 11.3594Q18.0938 11.875 17.8242 12.4727Q17.5547 13.0703 17.3438 13.6797Q17.3438 14.0547 17.2031 14.3711Q17.0625 14.6875 16.6875 14.9453Q16.6046 15.0282 16.5569 15.0114Q16.5371 15.0044 16.5234 14.9805Q16.4766 14.8984 16.2656 14.9453Q16.0078 15.3438 15.7383 15.7305Q15.4688 16.1172 15.2695 16.5156Q15.0703 16.9141 14.9766 17.3594Q14.8828 17.8047 14.9531 18.3203Q14.7891 18.2969 14.7539 18.4141Q14.7188 18.5313 14.6719 18.6484Q14.8594 18.8594 14.9063 19.1758Q14.9531 19.4922 15.1406 19.6797Q15.0703 19.7031 14.9883 19.6914ZM29.8359 24.3672Q29.7188 24.3906 29.625 24.1914Q29.5313 23.9922 29.4141 23.8047L29.6719 23.8047Q29.5078 23.2891 29.5898 22.8555Q29.6719 22.4219 29.7891 22.0117Q29.9063 21.6016 29.9883 21.2148Q30.0703 20.8281 29.9063 20.4063Q29.963 20.4403 30.006 20.4276Q30.0518 20.4142 30.082 20.3477Q30.1406 20.2188 30.1758 20.0195Q30.2109 19.8203 30.1992 19.5977Q30.1875 19.375 30.1641 19.2344Q30.4688 18.5078 30.6445 17.7344Q30.8203 16.9609 30.9609 16.1992Q31.1016 15.4375 31.2773 14.7227Q31.4531 14.0078 31.7344 13.375Q32.0625 13.3281 32.4258 13.457Q32.7891 13.5859 32.9063 13.7734Q33.6328 13.2109 34.1953 12.4141Q34.7578 11.6172 35.332 10.8555Q35.9063 10.0938 36.6328 9.50781Q37.3594 8.92188 38.4375 8.80469Q39 9.20313 39.7031 9.66016Q40.4063 10.1172 40.8516 10.7969Q41.0391 10.9141 41.2148 11.043Q41.3906 11.1719 41.5781 11.2891L41.5781 11.6406Q41.9063 11.9453 42.1289 12.3555Q42.3516 12.7656 42.5273 13.2227Q42.7031 13.6797 42.8672 14.1484Q43.0313 14.6172 43.2422 15.0156Q43.1953 15.1563 43.207 15.2617Q43.2188 15.3672 43.2539 15.4727Q43.2891 15.5781 43.3125 15.707Q43.3359 15.8359 43.3359 16.0234Q43.2422 17.2656 42.5273 18.0273Q41.8125 18.7891 40.793 19.2695Q39.7734 19.75 38.625 20.0898Q37.4766 20.4297 36.5391 20.8281Q36.5391 20.9219 36.6445 20.9219Q36.684 20.9219 36.7021 20.9415Q36.7325 20.9744 36.7031 21.0625Q37.4063 21.4844 37.793 21.7422Q38.1797 22 38.5195 22.1758Q38.8594 22.3516 39.2695 22.4688Q39.6797 22.5859 40.4063 22.75Q41.1328 22.9141 41.543 23.0195Q41.9531 23.125 42.2813 23.1836Q42.6094 23.2422 42.9844 23.2891Q43.3514 23.3349 43.9655 23.4033Q43.9781 23.3863 43.9922 23.3711Q44.1328 23.2188 44.2969 23.0781Q44.8594 23.0547 45.3047 22.9844Q45.75 22.9141 46.1719 22.8438Q46.5938 22.7734 47.0156 22.7148Q47.4375 22.6563 47.9297 22.6563Q48.2813 21.9297 48.5859 21.2617Q48.8906 20.5938 49.1719 19.9844Q49.3125 19.3984 49.5352 18.8945Q49.7578 18.3906 49.9688 17.9336Q50.1797 17.4766 50.3438 17.0195Q50.5078 16.5625 50.5547 16.0469Q50.8359 15.2266 51.0586 14.5352Q51.2813 13.8438 51.3984 12.8828Q50.5078 13.0234 49.9688 13.1523Q49.4297 13.2813 49.1953 13.3984Q48.7266 13.375 48.457 13.2109Q48.1875 13.0469 48.0234 12.8125Q47.8594 12.5781 47.7422 12.2734Q47.625 11.9688 47.4609 11.6406Q47.5547 11.4297 47.5078 11.0195Q47.4609 10.6094 47.2266 10.4219Q47.4141 10.375 47.5078 10.1055Q47.6016 9.83594 47.5313 9.69531Q47.9297 9.57813 48.375 9.54297Q48.8203 9.50781 49.2539 9.47266Q49.6875 9.4375 50.0859 9.37891Q50.4844 9.32031 50.7656 9.13281Q51.9844 9.08594 53.3086 9.03906Q54.6328 8.99219 55.7578 8.92188Q56.1797 9.0625 56.7305 9.0625Q57.2813 9.0625 57.832 9.13281Q58.3828 9.20313 58.8164 9.4375Q59.25 9.67188 59.4141 10.2578Q59.7656 10.3047 59.9414 10.4453Q60.1172 10.5859 60.1641 10.7852Q60.2109 10.9844 60.1992 11.2305Q60.1875 11.4766 60.1875 11.7109Q59.8125 11.9922 59.2383 12.168Q58.6641 12.3438 57.9844 12.4492Q57.3047 12.5547 56.5664 12.5898Q55.8281 12.625 55.125 12.6484Q55.0078 13.4219 54.7148 14.4648Q54.4219 15.5078 54.1172 16.5039Q53.8125 17.5 53.5898 18.2852Q53.3672 19.0703 53.3906 19.3047Q53.1563 19.8438 53.0039 20.2188Q52.8516 20.5938 52.7227 20.9219Q52.5938 21.25 52.4648 21.5664Q52.3359 21.8828 52.1484 22.2813L53.7422 22.2813Q53.7891 22.5391 53.9531 22.6328Q54.1172 22.7266 54.3047 22.7969Q54.4922 22.8672 54.6445 22.9727Q54.7969 23.0781 54.7969 23.3125Q55.2422 23.4297 55.3594 23.6641Q55.4766 23.8984 55.418 24.168Q55.3594 24.4375 55.1836 24.7188Q55.0078 25 54.8438 25.2109Q54.6328 25.1641 54.4453 25.3164Q54.2578 25.4688 54.0938 25.6563Q53.4141 25.5625 52.7578 25.6328Q52.1016 25.7031 51.5391 25.75Q51.4747 25.7629 51.4528 25.8005Q51.4347 25.8314 51.4453 25.8789Q51.4688 25.9844 51.3984 26.0313Q50.6719 25.7969 49.9102 25.8438Q49.1484 25.8906 48.3633 26.0664Q47.5781 26.2422 46.7578 26.4414Q45.9375 26.6406 45.0938 26.6641Q44.8006 26.4756 44.6103 26.1936Q44.5813 26.2284 44.5547 26.2656L44.3203 26.5938Q44.2031 26.7578 44.0508 26.8984Q43.8984 27.0391 43.6641 27.0625Q42.8203 27.3906 41.5078 27.0859Q40.1953 26.7813 38.1563 26.0078Q37.1484 25.6328 36.5156 25.3281Q35.8828 25.0234 35.4141 24.7305Q34.9453 24.4375 34.5469 24.0977Q34.1484 23.7578 33.6328 23.2891Q33.5625 23.3125 33.5508 23.3828Q33.5391 23.4531 33.4688 23.4766Q33.3516 24.4141 33.1055 25Q32.8594 25.5859 32.3906 26.1953Q32.0156 26.125 31.8867 26.2656Q31.7578 26.4063 31.5703 26.5234Q31.3359 26.5703 31.2188 26.5117Q31.1016 26.4531 31.0078 26.3828Q30.9141 26.3125 30.7969 26.2422Q30.6797 26.1719 30.4219 26.1953Q30.3516 25.9844 30.2813 25.7852Q30.2109 25.5859 29.9063 25.6094Q29.9766 25.3984 29.9531 25.2461Q29.9297 25.0938 29.8828 24.9648Q29.8359 24.8359 29.8008 24.6953Q29.7656 24.5547 29.8359 24.3672ZM0.398438 15.2383Q0.375 15.4609 0.304688 15.8125Q0.445313 16.0703 0.621094 16.2695Q0.796875 16.4688 0.960938 16.7031Q1.21875 16.6563 1.28906 16.7617Q1.35937 16.8672 1.40625 17.0078Q2.22656 17.3594 3.10547 17.5Q3.98438 17.6406 4.96875 17.6875Q5.36719 17.7813 5.64844 17.875Q5.92969 17.9688 6.21094 17.7813Q6.67969 18.0391 7.35938 18.25Q8.03906 18.4609 8.64844 18.7656Q8.69531 18.7656 8.75391 18.7891Q8.8125 18.8125 8.88281 18.8359Q8.88281 18.9297 8.92969 18.9766Q8.97656 19.0234 9.02344 19.0586Q9.07031 19.0938 9.09375 19.1406Q9.11719 19.1875 9.09375 19.2813Q9.02344 19.5391 8.88281 19.7148Q8.74219 19.8906 8.57813 20.043Q8.41406 20.1953 8.26172 20.3594Q8.10938 20.5234 8.03906 20.7578Q7.38281 21.0859 6.69141 21.4727Q6 21.8594 5.23828 22.1875Q4.47656 22.5156 3.62109 22.7031Q2.76562 22.8906 1.80469 22.7969Q1.47656 22.9844 1.40625 23.2539Q1.33594 23.5234 1.35938 23.8281Q1.38281 24.1328 1.41797 24.4258Q1.45313 24.7188 1.33594 24.9297Q1.3125 25 1.37109 25.0469Q1.42969 25.0938 1.48828 25.1289Q1.54688 25.1641 1.55859 25.1992Q1.57031 25.2344 1.47656 25.3047L1.42969 25.3984Q1.40625 25.4453 1.40625 25.5391Q1.45952 25.5391 1.48615 25.5657Q1.51811 25.5977 1.51172 25.668Q1.5 25.7969 1.61719 25.8203Q1.71094 26.0781 1.86328 26.2656Q2.01563 26.4531 2.20313 26.6406Q2.50781 26.5938 2.82422 26.6172Q3.14063 26.6406 3.45703 26.6523Q3.77344 26.6641 4.04297 26.6172Q4.3125 26.5703 4.52344 26.3828Q4.48138 26.4809 4.5106 26.512Q4.53023 26.5329 4.58203 26.5234Q4.71094 26.5 4.80469 26.5234Q5.83594 26.2188 6.89063 25.7617Q7.94531 25.3047 8.89453 24.6836Q9.84375 24.0625 10.5938 23.2422Q11.3438 22.4219 11.7422 21.3906Q11.9766 20.8516 11.9414 20.2891Q11.9062 19.7266 11.8594 19.0234Q11.6719 18.5781 11.332 18.1914Q10.9922 17.8047 10.8984 17.4531Q10.7578 17.2891 10.6523 17.3359Q10.6332 17.3445 10.6143 17.3437Q10.5298 17.3402 10.4531 17.1484Q10.4766 16.8906 10.3828 16.5742Q10.2891 16.2578 10.0781 15.9766Q9.86719 15.6953 9.5625 15.4961Q9.25781 15.2969 8.83594 15.2734Q8.76563 14.9922 8.53125 14.8633Q8.29687 14.7344 8.00391 14.6641Q7.71094 14.5938 7.42969 14.5117Q7.14844 14.4297 6.98438 14.2188Q7.03125 14.0781 6.96094 14.0313Q6.89062 13.9844 6.91406 13.8672Q7.38281 13.8203 7.80469 13.7383Q8.22656 13.6563 8.48438 13.4219Q8.8125 13.4688 9.1875 13.3633Q9.5625 13.2578 9.94922 13.1523Q10.3359 13.0469 10.6875 13.0352Q11.0391 13.0234 11.2969 13.3047Q12.1406 13.2109 13.1953 13.1406Q14.25 13.0703 15.3047 13.3281Q15.6094 13.1641 15.8906 12.9766Q16.1719 12.7891 16.4297 12.6016Q16.5469 12.1094 16.3711 11.8164Q16.1953 11.5234 15.9141 11.2656Q15.8906 11.0078 15.75 10.7734Q15.6094 10.5391 15.4336 10.293Q15.2578 10.0469 15.0938 9.78906Q14.9297 9.53125 14.8359 9.25Q13.2891 8.80469 11.8828 8.88672Q10.4766 8.96875 9.14063 9.32031Q7.80469 9.67188 6.52734 10.1172Q5.25 10.5625 3.98438 10.7969Q3.95594 10.868 3.97925 10.8959Q3.99436 10.9141 4.03125 10.9141Q4.125 10.9141 4.125 11.0078Q3.63281 11.1484 3.07031 11.3477Q2.50781 11.5469 1.99219 11.8398Q1.47656 12.1328 1.04297 12.5547Q0.609375 12.9766 0.398438 13.5859Q0.445313 13.9609 0.386719 14.1719Q0.328125 14.3828 0.234375 14.7578Q0.421875 15.0156 0.398438 15.2383ZM61.3125 24.1797Q61.0781 24.3672 61.0313 24.6602Q60.9844 24.9531 60.9141 25.2344Q60.8438 25.5156 60.668 25.7148Q60.4922 25.9141 60.0469 25.8906Q59.9728 25.9832 59.9938 26.0172Q59.9994 26.0263 60.0117 26.0313Q60.0703 26.0547 60.1172 26.2422Q59.7891 26.1953 59.6484 26.2891Q59.5078 26.3828 59.2969 26.4297Q58.7578 26.2656 58.3945 25.832Q58.0313 25.3984 57.7617 24.8828Q57.4922 24.3672 57.293 23.8281Q57.0938 23.2891 56.8828 22.8906Q56.8828 22.8387 56.908 22.8191Q56.9282 22.8034 56.9648 22.8086Q57.0469 22.8203 57.1172 22.8203Q57 22.5859 56.9414 22.293Q56.8828 22 56.7188 21.8125Q57.3984 20.3594 58.1719 18.7773Q58.9453 17.1953 59.7305 15.5664Q60.5156 13.9375 61.3008 12.2852Q62.0859 10.6328 62.8125 9.03906Q63.4688 9.27344 64.0898 9.58984Q64.7109 9.90625 65.2266 10.3281Q65.7422 10.75 66.1055 11.3008Q66.4688 11.8516 66.5859 12.5547Q66.5528 12.6542 66.5079 12.6598Q66.4893 12.6621 66.4688 12.6484Q66.4402 12.6294 66.4156 12.6335Q66.3794 12.6396 66.3516 12.6953Q66.4688 12.8359 66.4805 12.8945Q66.4922 12.9531 66.4688 13.0117Q66.4453 13.0703 66.4453 13.1641Q66.4453 13.2578 66.5625 13.4219Q66.4453 13.3984 66.3984 13.457Q66.3516 13.5156 66.2344 13.4688Q66.3516 13.7969 66.3047 13.9844Q66.2578 14.1719 66.1641 14.3242Q66.0703 14.4766 66.0117 14.6523Q65.9531 14.8281 66.0469 15.1328Q65.9531 15.1328 65.918 15.168Q65.8828 15.2031 65.8594 15.25Q65.8359 15.2969 65.8008 15.332Q65.7656 15.3672 65.6719 15.3438Q65.7422 15.9531 65.7188 16.5742Q65.6953 17.1953 65.6719 17.8398Q65.6484 18.4844 65.6719 19.1641Q65.6953 19.8438 65.8594 20.5703Q66.8672 19.9844 67.4883 19.0469Q68.1094 18.1094 68.4727 16.9609Q68.8359 15.8125 69.0352 14.5Q69.2344 13.1875 69.4453 11.8281Q69.7031 11.5703 69.8555 11.1953Q70.0078 10.8203 70.1133 10.4219Q70.2188 10.0234 70.3242 9.61328Q70.4297 9.20313 70.6172 8.875Q71.0391 8.92188 71.332 9.12109Q71.625 9.32031 71.8828 9.56641Q72.1406 9.8125 72.4219 10.0234Q72.7031 10.2344 73.125 10.3047Q73.346 10.6204 73.5458 10.9203Q73.5778 10.8208 73.6172 10.7617Q73.6875 10.6563 73.7578 10.5859L73.8516 10.1641L74.2031 10.1641Q74.3906 10.1875 74.5898 10.1875L74.9766 10.1875Q75.8672 10.1875 76.8047 10.1172Q77.7422 10.0469 78.7266 9.95313Q79.8047 9.8125 81.0469 9.74219Q81.1641 9.48438 81.1992 9.41406L81.2813 9.25L81.5391 9.10938Q82.0781 9.08594 82.2891 9.23828Q82.5 9.39063 82.6172 9.53125Q83.2266 9.48438 83.8594 9.40234Q84.4922 9.32031 85.1719 9.22656Q86.1094 9.10938 87.0703 8.99219Q88.0313 8.875 88.9453 8.875Q89.3438 8.875 89.6953 8.89844Q90.0469 8.92188 90.375 8.96875L90.6563 9.17969Q90.75 9.34375 90.8906 9.48438Q91.0313 9.625 91.2188 9.76563Q91.5703 10.0469 91.9102 10.4688Q92.25 10.8906 92.1563 11.7109L92.0391 11.9453Q91.9453 12.0391 91.8047 12.1328L91.5703 12.4375L91.3125 12.4375Q91.0781 12.4375 90.9609 12.4727Q90.8438 12.5078 90.6797 12.5781Q90.5859 12.625 90.4688 12.6602Q90.3516 12.6953 90.2109 12.7422Q89.9531 12.7188 89.8125 12.7188L89.4844 12.7188Q88.7813 12.7188 87.9609 12.8125Q87.1406 12.9063 86.3672 13.0234Q85.8047 13.0938 85.2891 13.1523Q84.7734 13.2109 84.3516 13.2578Q84.1172 13.8672 83.9297 14.3359Q83.7422 14.8047 83.5313 15.2734Q83.3203 15.7422 83.1328 16.2227Q82.9453 16.7031 82.7813 17.2891Q82.5 17.7109 82.3125 18.0977Q82.125 18.4844 82.0078 18.9766Q81.6563 19.375 81.5039 19.8438Q81.3516 20.3125 81.2344 20.6406L81.1406 20.9922Q80.9766 21.1563 80.9414 21.25Q80.9063 21.3438 80.8125 21.4609Q80.7422 21.7656 80.625 22.0469Q80.5781 22.1641 80.5313 22.293Q80.4844 22.4219 80.5078 22.4922Q80.4609 22.75 80.3672 22.8906Q80.3672 23.0313 80.3438 23.1719L80.2969 23.4531Q80.25 23.6172 80.2266 23.7461Q80.2031 23.875 80.25 23.9922L80.3906 24.1797Q80.4609 24.2734 80.5078 24.4141Q80.5547 24.4609 80.625 24.4844Q80.6953 24.5078 80.7422 24.5547Q80.9297 24.7188 81.0938 24.7422L81.3281 25.0234Q81.4688 25.8672 81.0703 26.3359Q80.6484 26.875 79.6641 26.875L79.3359 26.8516Q79.1719 26.6875 79.1484 26.6406Q78.9375 26.5469 78.7969 26.4883Q78.6563 26.4297 78.5391 26.2656Q78.4922 26.2188 78.4219 26.207Q78.3516 26.1953 78.3047 26.1484Q78.0703 26.0781 77.9297 25.9844L77.6719 25.8438Q77.6953 25.6094 77.6953 25.5156Q77.5078 25.2578 77.4023 24.9531Q77.2969 24.6484 77.2266 24.3203Q77.1563 24.0625 77.0977 23.8516Q77.0391 23.6406 76.9219 23.4766Q76.875 21.8359 77.2266 20.7227Q77.5781 19.6094 78 18.5547Q78.2344 17.9922 78.4453 17.4063Q78.6563 16.8203 78.8203 16.2109L79.0781 15.9531Q79.2422 15.8125 79.2891 15.7891Q79.2891 15.4844 79.4063 15.1914Q79.5234 14.8984 79.6641 14.5938Q79.7578 14.4063 79.8398 14.2188Q79.9219 14.0313 79.9453 13.8906Q79.7813 13.8906 79.6523 13.9023Q79.5234 13.9141 79.3828 13.9375Q79.0781 14.0078 78.7969 14.0078Q78.5859 14.0078 78.4922 13.9844Q78.3047 14.0781 78.1406 14.0898Q77.9766 14.1016 77.8125 14.1016L77.25 14.1016Q76.9688 14.1016 76.8047 14.1719L75.6094 14.1719Q75.4219 14.1719 75.1875 14.1367Q74.9531 14.1016 74.6953 13.9609L74.5313 13.7734Q74.3906 13.5156 74.2734 13.4922L74.0156 13.4219L74.0156 13.1641Q73.9922 12.9766 73.9336 12.8242Q73.9138 12.7726 73.8928 12.7177Q73.8248 12.9878 73.7461 13.2578Q73.6641 13.5391 73.5234 13.7734Q73.3828 14.0078 73.125 14.1719Q73.0547 14.875 72.9141 15.4844Q72.7734 16.0938 72.6563 16.6797Q72.5391 17.2656 72.4453 17.8984Q72.3516 18.5313 72.375 19.2813Q72.1641 19.9609 71.9063 20.6758Q71.6484 21.3906 71.5313 22Q71.0859 22.3516 70.8281 22.8672Q70.5703 23.3828 70.2891 23.8984Q70.1965 23.9725 70.1624 23.9515Q70.1534 23.9459 70.1484 23.9336Q70.125 23.875 69.9375 23.8516Q69.9609 24.0625 69.8555 24.1211Q69.75 24.1797 69.8672 24.4609Q69.4688 24.6484 69.1641 24.9531Q68.8594 25.2578 68.4961 25.5156Q68.1328 25.7734 67.6523 25.8555Q67.1719 25.9375 66.3984 25.6563Q65.25 24.8125 64.3359 23.7109Q63.4219 22.6094 62.8828 21.1094Q62.6484 21.1797 62.5313 21.4141Q62.4141 21.6484 62.3203 21.9063Q62.2266 22.1641 62.1328 22.375Q62.0391 22.5859 61.8516 22.5859Q61.8047 22.7969 61.6758 22.9727Q61.5469 23.1484 61.4297 23.3242Q61.3125 23.5 61.2539 23.7109Q61.1953 23.9219 61.3125 24.1797ZM20.8242 14.7461Q20.8828 14.5469 20.9766 14.2891Q21.5391 13.7734 22.3008 13.6094Q23.0625 13.4453 23.8242 13.5039Q24.5859 13.5625 25.2422 13.7969Q25.8984 14.0313 26.2266 14.3359Q25.9688 14.5938 25.6172 14.7461Q25.2656 14.8984 24.8906 15.0156Q24.5156 15.1328 24.1289 15.2383Q23.7422 15.3438 23.3906 15.5078Q23.0391 15.6719 22.7109 15.7422Q22.3828 15.8125 22.0547 15.8594Q21.7266 15.9063 21.3984 15.9883Q21.0703 16.0703 20.7422 16.2344Q20.6953 16.0938 20.5547 16.0234Q20.4141 15.9531 20.3672 15.8125Q20.4609 15.6016 20.543 15.4375Q20.625 15.2734 20.6953 15.1094Q20.7656 14.9453 20.8242 14.7461ZM37.6641 13.6563Q37.3594 14.1016 36.9844 14.4648Q36.6094 14.8281 36.2461 15.2148Q35.8828 15.6016 35.6016 16.0586Q35.3203 16.5156 35.2031 17.1484Q36.1875 17.0313 37.2656 16.5977Q38.3438 16.1641 39.3047 15.7656Q39.1875 14.8984 38.6953 14.3711Q38.2031 13.8438 37.6641 13.6563Z" />
  </g>
</svg>