<?xml version="1.0" encoding="utf-8"?>
<svg width="120px" height="60px" viewBox="0 0 120 60" version="1.1" xmlns:xlink="http://www.w3.org/1999/xlink" xmlns="http://www.w3.org/2000/svg">
  <desc>Created with Lunacy</desc>
  <g id="SPRINT" fill="#FFFFFF">
    <path d="M64.4648 23.9336Q64.6055 23.3828 64.7988 22.5449Q64.9922 21.707 65.1973 20.7227Q65.4023 19.7383 65.6133 18.666Q65.8242 17.5938 66 16.5859Q66.1758 15.5781 66.3047 14.6992Q66.4336 13.8203 66.4805 13.1992Q66.4922 12.9531 66.4746 12.6777Q66.457 12.4023 66.4922 12.1387Q66.5273 11.875 66.6563 11.6348Q66.7852 11.3945 67.1133 11.2305Q67.5117 11.0313 67.8398 11.0547Q68.168 11.0781 68.5547 11.2891Q68.6367 11.3359 68.7188 11.5469Q68.8008 11.7578 68.877 12.0391Q68.9531 12.3203 69.0176 12.6309Q69.082 12.9414 69.1406 13.1641Q69.2813 13.7031 69.6387 14.5117Q69.9961 15.3203 70.5234 16.2871Q71.0508 17.2539 71.7129 18.3379Q72.375 19.4219 73.1074 20.5059Q73.8398 21.5898 74.6074 22.6211Q75.375 23.6523 76.125 24.5313Q76.4414 23.3125 76.6758 22.2109Q76.9102 21.1094 77.1035 20.0488Q77.2969 18.9883 77.4727 17.9395Q77.6484 16.8906 77.8242 15.7656Q77.918 15.1914 78.0234 14.4824Q78.1289 13.7734 78.2227 13.0527Q78.3164 12.332 78.3809 11.6582Q78.4453 10.9844 78.457 10.4922L78.457 10.0938Q78.457 9.89453 78.4746 9.71289Q78.4922 9.53125 78.5566 9.36133Q78.6211 9.19141 78.7617 9.0625Q79.1367 8.72266 79.4414 8.65234Q79.7461 8.58203 80.0859 8.58203Q80.25 8.58203 80.3906 8.76953Q80.5313 8.95703 80.6367 9.21484Q80.7422 9.47266 80.8066 9.74805Q80.8711 10.0234 80.8828 10.1875Q80.8945 10.3398 80.8359 10.6738Q80.7773 11.0078 80.6895 11.3945Q80.6016 11.7813 80.5078 12.1563Q80.4141 12.5313 80.3555 12.7422Q80.0859 13.8086 79.8105 15.0918Q79.5352 16.375 79.2832 17.6875Q79.0313 19 78.8086 20.2539Q78.5859 21.5078 78.4219 22.5156Q78.2578 23.5234 78.1699 24.1855Q78.082 24.8477 78.0938 24.9766Q78.1055 25.1523 78.1113 25.375Q78.1172 25.5977 78.1172 25.8145L78.1172 26.2246Q78.1172 26.418 78.1289 26.5234Q78.1523 26.8047 78.0762 27.0098Q78 27.2148 77.877 27.3555Q77.7539 27.4961 77.6016 27.584Q77.4492 27.6719 77.3203 27.7188Q77.168 27.7656 76.9688 27.8008Q76.7695 27.8359 76.5762 27.8359Q76.3828 27.8359 76.2129 27.8066Q76.043 27.7773 75.9609 27.6836Q75.5156 27.2617 75.2168 26.8691Q74.918 26.4766 74.8242 26.1016Q74.8008 25.9844 74.707 25.8145Q74.6133 25.6445 74.502 25.4746Q74.3906 25.3047 74.2852 25.1582Q74.1797 25.0117 74.1094 24.9297Q73.3477 23.9453 72.6094 22.9375Q71.8711 21.9297 71.127 20.793Q70.3828 19.6563 69.6211 18.3555Q68.8594 17.0547 68.0391 15.5078Q67.7109 16.6797 67.4531 18.0039Q67.1953 19.3281 66.9844 20.6055Q66.7734 21.8828 66.6094 23.0254Q66.4453 24.168 66.3281 24.9766Q66.293 25.2109 66.293 25.5566L66.293 26.2539Q66.293 26.6055 66.2695 26.916Q66.2461 27.2266 66.1758 27.4023Q66.1172 27.5313 65.9941 27.707Q65.8711 27.8828 65.7129 28.0469Q65.5547 28.2109 65.373 28.3223Q65.1914 28.4336 65.0156 28.4336Q64.6758 28.4336 64.4824 28.3281Q64.2891 28.2227 64.1836 28.0176Q64.0781 27.8125 64.0313 27.5078Q63.9844 27.2031 63.9492 26.8047Q63.9375 26.6523 63.9785 26.3184Q64.0195 25.9844 64.0957 25.5801Q64.1719 25.1758 64.2656 24.7422Q64.3594 24.3086 64.4648 23.9336ZM32.8008 14.125Q33.1406 13.2813 33.1406 12.8828Q33.1406 11.8398 32.3438 11.2188Q31.5469 10.5859 30.375 10.3047Q29.7891 10.1641 29.2207 10.0762Q28.6523 9.98828 28.084 9.94727Q27.5156 9.90625 26.9238 9.89453Q26.332 9.88281 25.6992 9.88281Q24.9609 9.88281 23.4844 10.0586Q22.7461 10.1523 22.0254 10.2637Q21.3047 10.375 20.5898 10.5273Q19.1602 10.832 18.4805 11.125Q17.8477 11.3945 17.5137 11.7461Q17.1797 12.0977 17.1797 12.6719Q17.1797 12.9297 17.3496 13.0879Q17.5195 13.2461 17.7773 13.2461Q17.918 13.2461 18.1875 13.1406Q20.4844 12.3555 21.7383 12.0859Q24.3281 11.582 26.6367 11.582Q27.0234 11.582 27.4746 11.5938Q27.9258 11.6055 28.4063 11.6465Q28.8867 11.6875 29.3789 11.7637Q29.8711 11.8398 30.3516 11.9688Q31.3125 12.2266 31.3125 12.7188Q31.3125 13.7852 30.0938 15.0273Q29.4844 15.6367 28.8457 16.1523Q28.207 16.668 27.5273 17.0781Q26.4961 17.6992 25.4063 18.2148Q24.3281 18.7305 22.9453 19.3047Q22.2422 19.5977 21.709 19.8203Q21.1758 20.043 20.8008 20.207Q20.8125 19.9844 20.8418 19.6738Q20.8711 19.3633 20.9063 19.0059Q20.9414 18.6484 20.9941 18.2559Q21.0469 17.8633 21.1172 17.4766Q21.1875 17.0781 21.252 16.7207Q21.3164 16.3633 21.375 16.0234Q21.457 15.6016 21.5508 15.3555Q21.5742 15.2852 21.6738 14.9805Q21.7734 14.6758 21.8848 14.3359Q21.9961 13.9961 22.084 13.6973Q22.1719 13.3984 22.1719 13.3398Q22.1719 12.8828 21.9551 12.6191Q21.7383 12.3555 21.3047 12.3555Q21.082 12.3555 20.8945 12.4258Q20.5898 12.7539 20.3906 13.1289Q20.1914 13.5039 20.0625 13.9023Q19.9336 14.3125 19.8164 14.8516Q19.7578 15.1211 19.7109 15.332Q19.6641 15.543 19.6289 15.6953Q19.4766 16.2461 19.3711 16.832Q19.2656 17.418 19.1484 18.2266Q19.0898 18.6367 19.0371 19Q18.9844 19.3633 18.9258 19.7031Q18.7852 20.7813 18.7031 21.543Q18.6211 22.3047 18.6211 22.9609L18.6211 23.3008Q18.6211 28.8906 19.9102 28.8906Q20.3555 28.8906 20.625 28.6328Q20.8945 28.375 20.8945 27.9297Q20.8945 27.4375 20.8594 26.7871Q20.8242 26.1367 20.7656 25.293Q20.707 24.4492 20.6719 23.8691Q20.6367 23.2891 20.6367 22.9609L20.6367 22.5742Q20.6367 22.2109 20.707 22.1172Q21.9609 21.7188 23.1973 21.209Q24.4336 20.6992 25.6758 20.0547Q27.5625 19.0938 29.4609 17.8164Q31.3477 16.5391 32.1797 15.3555Q32.332 15.1445 32.4844 14.8398Q32.6367 14.5352 32.8008 14.125ZM59.9883 14.7051Q60.1172 14.3242 60.3516 13.7383Q60.8203 12.5664 60.8086 12.2617Q60.7969 12.0859 60.7969 11.9453Q60.7969 11.8047 60.7852 11.6172Q60.7617 11.3242 60.6445 11.0605Q60.5273 10.7969 60.293 10.5625Q60.1172 10.3633 59.8301 10.2402Q59.543 10.1172 59.3086 10.1289Q59.1797 10.1289 59.0449 10.252Q58.9102 10.375 58.7988 10.5391Q58.6875 10.7031 58.6113 10.8848Q58.5352 11.0664 58.5234 11.207Q58.4414 11.6172 58.3887 11.8867Q58.3359 12.1563 58.3125 12.3203Q58.2773 12.4609 58.2305 12.707Q58.1836 12.9531 58.125 13.3047Q57.9258 14.3008 57.7617 15.1035Q57.5977 15.9063 57.4688 16.5508Q57.3398 17.1836 57.2051 17.8926Q57.0703 18.6016 56.918 19.3984Q56.7188 20.5586 56.584 21.5078Q56.4492 22.457 56.3555 23.207Q56.2617 23.9688 56.2441 24.707Q56.2266 25.4453 56.2617 26.1836Q56.2734 26.4297 56.4258 26.7813Q56.5781 27.1328 56.8008 27.3672Q57 27.5313 57.3398 27.5313Q57.5625 27.5078 57.8145 27.4082Q58.0664 27.3086 58.3594 27.1094Q58.957 26.7109 58.9336 26.2891Q58.9219 26.1016 58.7813 25.8438Q58.6289 25.5625 58.6289 25.4219Q58.6172 25.1875 58.623 24.918Q58.6289 24.6484 58.6523 24.3203Q58.6758 23.9922 58.7109 23.7168Q58.7461 23.4414 58.7695 23.207Q58.8047 22.9727 58.8516 22.6035Q58.8984 22.2344 58.9688 21.7305Q59.168 19.8672 59.3848 18.2617Q59.6016 16.6563 59.8359 15.2617Q59.8594 15.0859 59.9883 14.7051ZM13.9102 12.8945Q13.9453 12.6719 13.9453 12.5195Q13.9453 12.0977 13.6055 11.6523Q13.2656 11.207 12.668 10.8906Q12.4219 10.75 12.0176 10.6445Q11.6133 10.5391 11.1621 10.4688Q10.7109 10.3984 10.2832 10.3574Q9.85547 10.3164 9.57422 10.3164Q9.33984 10.3164 9.00586 10.3457Q8.67188 10.375 8.31445 10.416Q7.95703 10.457 7.62305 10.5156Q7.28906 10.5742 7.05469 10.6211Q5.90625 10.8906 4.82227 11.3652Q3.73828 11.8398 2.89453 12.4492Q2.05078 13.0586 1.55273 13.7734Q1.05469 14.4883 1.07813 15.2617Q1.07812 16.9141 2.17969 18.0859Q3.28125 19.2578 4.875 19.8672Q5.83594 20.2422 6.63867 20.5117Q7.44141 20.7813 8.08594 20.9453Q8.61328 21.0742 9.28711 21.2969Q9.96094 21.5195 10.6055 21.918Q11.2617 22.3281 11.2617 22.7734Q11.2617 23.0898 11.0859 23.3828Q10.9102 23.6758 10.6523 23.9336Q10.3945 24.1914 10.0957 24.4082Q9.79688 24.625 9.55078 24.7891Q9.02344 25.1289 8.36133 25.4453Q7.69922 25.7617 6.97266 26.0078Q6.24609 26.2539 5.49023 26.4004Q4.73438 26.5469 4.03125 26.5469Q3.35156 26.5469 2.87695 26.4707Q2.40234 26.3945 2.05664 26.3008Q1.71094 26.207 1.45898 26.1309Q1.20703 26.0547 0.972656 26.0547Q0.84375 26.0547 0.744141 26.2012Q0.644531 26.3477 0.568359 26.5586Q0.492188 26.7695 0.451172 26.9922Q0.410156 27.2148 0.410156 27.3672Q0.410156 27.6133 0.744141 27.8301Q1.07812 28.0469 1.54688 28.2051Q2.01563 28.3633 2.50195 28.4512Q2.98828 28.5391 3.29297 28.5391Q3.70312 28.5391 4.22461 28.4746Q4.74609 28.4102 5.31445 28.3047Q5.88281 28.1992 6.46289 28.0527Q7.04297 27.9063 7.57031 27.7305Q8.10938 27.5547 8.63672 27.3203Q9.16406 27.0859 9.65625 26.8164Q10.1484 26.5469 10.582 26.2598Q11.0156 25.9727 11.3555 25.7031Q11.6484 25.4805 11.9883 25.1523Q12.3281 24.8242 12.6211 24.4316Q12.9141 24.0391 13.1074 23.6113Q13.3008 23.1836 13.3008 22.75Q13.3008 21.4023 12.0176 20.4707Q10.7344 19.5391 8.08594 18.8594Q7.99219 18.8359 7.6582 18.7246Q7.32422 18.6133 6.93164 18.4844Q6.53906 18.3555 6.19922 18.2383Q5.85937 18.1211 5.76563 18.0859Q5.22656 17.9336 4.72852 17.6055Q4.23047 17.2773 3.84961 16.8789Q3.46875 16.4805 3.24609 16.0586Q3.02344 15.6367 3.04688 15.3086Q3.11719 14.875 3.39844 14.5117Q3.67969 14.1484 4.06641 13.8438Q4.45313 13.5391 4.91016 13.2988Q5.36719 13.0586 5.78906 12.8828Q6.33984 12.6602 6.84961 12.5254Q7.35937 12.3906 7.85742 12.3145Q8.35547 12.2383 8.87695 12.2148Q9.39844 12.1914 9.96094 12.1914Q10.207 12.1914 10.5527 12.2441Q10.8984 12.2969 11.2383 12.4141Q11.5781 12.5313 11.8535 12.7012Q12.1289 12.8711 12.2344 13.1172Q12.457 13.6445 12.457 14.4414Q13.1836 14.4414 13.4648 14.1016Q13.5703 13.9844 13.6582 13.7793Q13.7461 13.5742 13.8105 13.3457Q13.875 13.1172 13.9102 12.8945ZM54.8086 26.9922Q54.7969 27.4609 54.3164 27.707Q53.8359 27.9531 53.3438 27.9531Q52.6992 27.9531 52.0488 27.666Q51.3984 27.3789 50.625 26.875Q50.2148 26.6055 49.6172 26.166Q49.0195 25.7266 48.2109 25.0938Q48.0117 24.9414 47.4375 24.4961Q46.8633 24.0508 45.9141 23.3008Q44.0156 21.8125 43.7695 21.7188Q43.3828 21.5898 42.5391 21.5898Q42.3633 21.5898 41.9707 21.6074Q41.5781 21.625 40.957 21.6719Q40.5234 21.3789 40.5234 20.6055Q40.5234 19.9492 40.9805 19.8203Q41.0391 19.8086 41.1738 19.791Q41.3086 19.7734 41.4844 19.7559Q41.6602 19.7383 41.8652 19.7207Q42.0703 19.7031 42.2813 19.6797Q43.8516 19.4336 45.0586 18.8125Q45.4922 18.5898 45.9141 18.3379Q46.3359 18.0859 46.7695 17.8047Q47.625 17.2305 48.293 16.5273Q48.9727 15.8359 48.9727 15.168Q48.9844 14.6758 48.6855 14.2246Q48.3867 13.7734 47.9238 13.4102Q47.4609 13.0469 46.9102 12.7832Q46.3594 12.5195 45.8789 12.3789Q45.0117 12.1328 44.0977 12.1328Q43.8281 12.1328 43.459 12.1563Q43.0898 12.1797 42.6211 12.2266Q42.1641 12.2734 41.7598 12.3203Q41.3555 12.3672 41.0156 12.4258Q40.6758 12.4844 40.2832 12.5547Q39.8906 12.625 39.4453 12.7188Q39.7148 13.1523 39.9141 14.0781Q40.1133 15.0039 40.1133 15.5898Q40.1133 15.9414 40.0957 16.2695Q40.0781 16.5977 40.0547 16.9023Q40.0313 17.207 39.9902 17.5234Q39.9492 17.8398 39.8906 18.168Q39.7852 18.8242 39.6094 19.8203Q39.3047 21.5547 39.1875 22.5391Q39.1289 23.043 39.0938 23.5117Q39.0586 23.9805 39.0586 24.4258Q39.0586 25.2227 39.1992 25.8496Q39.3398 26.4766 39.7383 27.1094Q39.5742 27.3555 39.2695 27.5371Q38.9648 27.7188 38.6836 27.7188Q37.8984 27.7188 37.5352 27.4023Q37.1602 27.0625 37.0781 26.5703Q36.9961 26.0898 36.9961 25.1406Q36.9961 24.543 37.0664 23.8867Q37.1367 23.2305 37.2305 22.6855Q37.3242 22.1406 37.4297 21.543Q37.4883 21.2734 37.5469 20.8809Q37.6055 20.4883 37.6875 19.9727Q37.8516 18.9414 37.9512 17.9922Q38.0508 17.043 38.0508 16.293Q38.0508 15.5781 38.0039 14.8164Q37.957 14.0547 37.8633 13.2227Q36.5742 13.5977 36.4219 13.5977Q36.0586 13.5977 35.9414 13.375Q35.8242 13.1523 35.8242 12.7656Q35.8242 12.3203 36.6563 11.9102Q37.0781 11.7109 37.4941 11.5469Q37.9102 11.3828 38.3203 11.2539Q39.2695 10.9492 40.8281 10.7266Q42.3867 10.4805 43.4297 10.4805Q45.2109 10.4805 46.8867 10.9023Q48.5391 11.3008 49.7109 12.3672Q50.8711 13.4219 50.8711 15.1914Q50.8711 16.3164 50.0273 17.3711Q49.1836 18.4141 48.041 19.1875Q46.8984 19.9609 45.5625 20.6641Q46.3359 21.1914 47.6719 22.1406Q48.3398 22.6094 48.9258 23.0195Q49.5117 23.4297 50.0156 23.793Q50.5313 24.1445 51.1523 24.5723Q51.7734 25 52.5234 25.5039Q53.2734 26.0078 53.8418 26.377Q54.4102 26.7461 54.8086 26.9922ZM100.506 12.2676Q100.582 12.0859 100.582 11.7344Q100.582 11.6406 100.541 11.5Q100.5 11.3594 100.43 11.2188Q100.359 11.0781 100.26 10.9609Q100.16 10.8438 100.031 10.8086Q99.7734 10.7266 99.4805 10.6797Q99.1875 10.6328 98.9297 10.6094Q98.6719 10.5859 98.4668 10.5801Q98.2617 10.5742 98.1797 10.5742Q97.4531 10.5742 96.6563 10.6855Q95.8594 10.7969 95.0508 10.9668Q94.2422 11.1367 93.4512 11.3242Q92.6602 11.5117 91.957 11.6523Q91.6172 11.7227 91.084 11.8047Q90.5508 11.8867 89.9824 11.9688Q89.4141 12.0508 88.875 12.1211Q88.3359 12.1914 87.9727 12.2383Q87.457 12.3086 86.7949 12.3555Q86.1328 12.4023 85.4355 12.4492Q84.7383 12.4961 84.0645 12.5664Q83.3906 12.6367 82.8633 12.7539Q82.6172 12.8125 82.4941 12.9707Q82.3711 13.1289 82.3301 13.3223Q82.2891 13.5156 82.2949 13.7031Q82.3008 13.8906 82.3125 14.0078Q82.4883 14.1836 82.6582 14.2773Q82.8281 14.3711 82.998 14.4063Q83.168 14.4414 83.332 14.4414L83.6602 14.4414Q84.3633 14.4414 85.1895 14.3594Q86.0156 14.2773 86.8125 14.1777Q87.6094 14.0781 88.3125 13.9961Q89.0156 13.9141 89.4609 13.9141Q89.4727 13.9141 89.5605 13.9023Q89.6484 13.8906 89.7539 13.9141Q89.8594 13.9375 89.9414 14.0195Q90.0234 14.1016 90.0234 14.2891Q90.0234 14.3008 89.9531 14.8398Q89.8828 15.3789 89.7773 16.2109Q89.6719 17.043 89.5488 18.0449Q89.4258 19.0469 89.3203 19.9902Q89.2148 20.9336 89.1445 21.6953Q89.0742 22.457 89.0742 22.8086Q89.0742 22.8789 89.0684 23.1133Q89.0625 23.3477 89.0625 23.6816Q89.0625 24.0156 89.0742 24.4199Q89.0859 24.8242 89.1211 25.2344Q89.1563 25.6445 89.2148 26.0254Q89.2734 26.4063 89.3672 26.6992Q89.4375 26.9219 89.5664 27.1152Q89.6953 27.3086 89.8535 27.4492Q90.0117 27.5898 90.1758 27.6719Q90.3398 27.7539 90.4805 27.7539Q90.6914 27.7539 90.873 27.6309Q91.0547 27.5078 91.1777 27.3145Q91.3008 27.1211 91.3711 26.8809Q91.4414 26.6406 91.4414 26.4063Q91.4414 26.3594 91.3887 26.043Q91.3359 25.7266 91.2715 25.3223Q91.207 24.918 91.1543 24.5254Q91.1016 24.1328 91.1016 23.9336Q91.1016 22.7734 91.1895 21.5957Q91.2773 20.418 91.4004 19.2168Q91.5234 18.0156 91.6699 16.7969Q91.8164 15.5781 91.9336 14.3359Q91.9336 14.2305 91.9746 14.0898Q92.0156 13.9492 92.0742 13.8145Q92.1328 13.6797 92.2148 13.5684Q92.2969 13.457 92.3906 13.3984Q92.5898 13.2813 93.1289 13.1348Q93.668 12.9883 94.3301 12.8594Q94.9922 12.7305 95.6719 12.6426Q96.3516 12.5547 96.8438 12.5547Q97.3125 12.5547 97.6699 12.5605Q98.0273 12.5664 98.3496 12.5781Q98.6719 12.5898 98.9941 12.5957Q99.3164 12.6016 99.7148 12.6016Q99.8672 12.6016 100.025 12.5957Q100.184 12.5898 100.307 12.5195Q100.43 12.4492 100.506 12.2676Z" />
  </g>
</svg>